<?xml version="1.0" encoding="utf-8"?>
<svg xmlns="http://www.w3.org/2000/svg" viewBox="0 0 500 500">
  <g>
  <path fill="#4338CA" d="M0 0h1024v1024H0z" class=""/>
    <path d="M 290.981 174.44 C 312.422 173.439 330.653 189.93 331.802 211.364 C 332.951 232.798 316.588 251.143 295.163 252.441 C 273.525 253.751 254.96 237.191 253.8 215.546 C 252.639 193.901 269.327 175.45 290.981 174.44" style="stroke-width: 0.598; fill: rgb(255, 255, 255);"/>
    <path d="M 202.642 174.641 C 223.999 172.152 243.351 187.395 245.933 208.741 C 248.514 230.087 233.356 249.504 212.021 252.179 C 190.555 254.871 170.991 239.598 168.393 218.12 C 165.795 196.642 181.153 177.145 202.642 174.641" style="stroke-width: 0.598; fill: rgb(255, 255, 255);"/>
    <path d="M 117.04 243.084 C 121.663 244.582 132.005 249.322 136.939 251.345 C 151.159 257.035 165.299 262.922 179.356 269.002 C 179.069 274.688 178.193 281.235 177.71 287.073 C 162.822 281.229 148.154 274.401 133.299 268.454 C 129.72 267.021 125.996 265.535 122.526 263.872 C 114.935 274.222 107.603 285.151 100.263 295.7 C 89.793 310.529 79.416 325.424 69.133 340.384 C 59.218 353.169 49.854 368.661 40.377 382.063 L 25.572 374.036 C 28.736 368.945 32.621 363.599 36.075 358.632 L 56.867 329.085 L 117.04 243.084 Z" style="stroke-width: 0.598; fill: rgb(255, 255, 255);"/>
    <path d="M 382.58 243.319 C 383.521 243.404 383.915 244.163 384.45 244.904 C 388.501 250.507 392.433 256.197 396.364 261.885 L 417.816 292.991 L 474.331 373.978 C 469.622 376.579 464.941 379.231 460.29 381.935 C 457.306 378.297 452.376 370.768 449.535 366.67 L 431.887 341.589 C 414.023 315.682 395.437 290.132 377.7 264.125 C 360.026 270.747 341.287 280.726 323.445 287.749 C 323.653 281.105 324.065 275.673 324.092 268.769 C 328.973 266.981 336.35 263.497 341.31 261.33 C 355.016 255.208 368.772 249.204 382.58 243.319" style="stroke-width: 0.598; fill: rgb(255, 255, 255);"/>
    <path d="M 107.192 202.7 C 109.71 203.684 113.508 205.725 116.023 206.979 L 130.848 214.28 C 135.26 216.446 139.685 218.582 144.126 220.688 C 146.653 221.888 150.137 223.408 152.462 224.804 C 154.41 233.686 155.741 237.77 159.918 245.832 C 156.367 243.985 151.441 242.118 147.678 240.332 C 135.521 234.557 122.651 229.352 110.616 223.395 C 105.29 230.384 97.196 239.102 91.373 245.977 L 50.579 294.346 L 21.988 328.744 C 18.235 325.34 13.936 321.914 10 318.673 C 15.084 311.243 24.005 301.176 29.967 294.209 L 52.757 267.206 C 70.937 245.954 88.882 223.706 107.192 202.7" style="stroke-width: 0.598; fill: rgb(255, 255, 255);"/>
    <path d="M 101.774 156.483 C 102.407 156.693 106.777 159.561 107.69 160.146 C 115.179 164.994 122.625 169.909 130.026 174.89 C 138.623 180.559 148.143 186.158 156.474 192.029 C 154.04 198.683 153.246 201.587 152.456 208.581 C 148.879 205.936 141.155 201.655 136.996 199.066 C 126.135 192.376 115.389 185.498 104.763 178.437 L 58.147 228.173 C 46.6 240.647 34.68 253.059 23.287 265.621 L 10.207 254.898 C 12.942 251.484 18.667 245.678 21.781 242.344 L 44.692 217.905 L 88.686 170.718 C 93.073 166.016 97.352 161.114 101.774 156.483" style="stroke-width: 0.598; fill: rgb(255, 255, 255);"/>
    <path d="M 392.142 202.922 C 393.177 202.84 393.732 203.606 394.373 204.365 C 399.785 210.763 405.161 217.192 410.553 223.608 C 422.049 237.116 433.442 250.712 444.73 264.393 L 470.267 294.887 C 476.648 302.459 483.954 310.904 490 318.667 C 486.568 321.831 481.725 325.505 478.004 328.485 C 474.616 323.78 468.74 317.252 464.885 312.791 C 459.754 306.797 454.679 300.756 449.659 294.669 C 429.506 271.377 409.44 247.028 389.434 223.46 C 383.755 226.311 378.404 228.509 372.742 231.178 C 362.123 236.182 351.385 241.467 340.53 245.937 C 344.763 239.078 346.949 232.344 348.412 224.507 C 362.533 217.973 378.449 210.268 392.142 202.922" style="stroke-width: 0.598; fill: rgb(255, 255, 255);"/>
    <path d="M 397.558 156.518 C 399.009 157.229 419.818 180.324 422.626 183.358 C 437.16 199.169 451.793 214.887 466.527 230.512 C 472.823 237.237 483.687 248.023 489.115 254.81 C 486.373 257.559 479.794 263.08 476.75 265.327 C 465.209 253.269 454.13 240.951 442.644 228.943 C 441.12 227.275 439.58 225.569 438.012 223.946 C 423.612 209.038 409.961 193.188 395.239 178.598 C 383.409 186.389 371.143 193.573 359.274 201.31 C 355.76 203.601 352.107 205.902 348.466 207.98 C 346.882 200.886 346.209 198.638 343.725 191.768 C 347.733 189.017 352.912 185.954 357.143 183.179 L 397.558 156.518 Z" style="stroke-width: 0.598; fill: rgb(255, 255, 255);"/>
    <path d="M 166.628 117.598 C 179.845 116.11 191.745 125.669 193.142 138.896 C 194.538 152.123 184.896 163.957 171.66 165.262 C 158.553 166.553 146.86 157.026 145.477 143.928 C 144.094 130.83 153.54 119.072 166.628 117.598" style="stroke-width: 0.598; fill: rgb(255, 255, 255);"/>
    <path d="M 327.196 117.609 C 340.282 115.846 352.329 124.999 354.136 138.079 C 355.943 151.158 346.83 163.235 333.756 165.087 C 320.621 166.946 308.474 157.781 306.658 144.639 C 304.842 131.497 314.049 119.381 327.196 117.609" style="stroke-width: 0.598; fill: rgb(255, 255, 255);"/>
    <text style="fill: rgb(255, 255, 255); font-family: Arial, sans-serif; font-size: 28px; white-space: pre; transform-box: fill-box; transform-origin: 7.78607px 15.6474px;" transform="matrix(0, 6.684654, -7.481651, 0, -27.211527, -31.124372)" x="269.45" y="366.736">3</text>
  </g>
</svg>